<svg width="27" height="16" viewBox="0 0 27 16" fill="none" xmlns="http://www.w3.org/2000/svg">
<path d="M7.89551 16H4.82324V3.67871H0.193359V0.595703H12.5146V3.67871H7.89551V16ZM17.4305 3.67871V9.84473H20.5135C20.936 9.84473 21.3335 9.76595 21.7059 9.6084C22.0783 9.44368 22.4041 9.22168 22.6834 8.94238C22.9627 8.66309 23.1811 8.33724 23.3387 7.96484C23.5034 7.58529 23.5857 7.18424 23.5857 6.76172C23.5857 6.33919 23.5034 5.94173 23.3387 5.56934C23.1811 5.18978 22.9627 4.86035 22.6834 4.58105C22.4041 4.30176 22.0783 4.08333 21.7059 3.92578C21.3335 3.76107 20.936 3.67871 20.5135 3.67871H17.4305ZM17.4305 16H14.3475V0.595703H20.5135C21.0792 0.595703 21.6235 0.670898 22.1463 0.821289C22.6691 0.964518 23.1561 1.1722 23.6072 1.44434C24.0656 1.70931 24.4809 2.03158 24.8533 2.41113C25.2329 2.78353 25.5551 3.19889 25.8201 3.65723C26.0923 4.11556 26.2999 4.60612 26.4432 5.12891C26.5936 5.65169 26.6687 6.19596 26.6687 6.76172C26.6687 7.60677 26.5076 8.40527 26.1854 9.15723C25.8631 9.90202 25.4227 10.5537 24.8641 11.1123C24.3055 11.6709 23.6502 12.1113 22.8982 12.4336C22.1535 12.7559 21.3585 12.917 20.5135 12.917H17.4305V16Z" fill="#213C9A"/>
</svg>
